<svg aria-hidden="true" style="position: absolute; width: 0; height: 0; overflow: hidden;" version="1.1" xmlns="http://www.w3.org/2000/svg" xmlns:xlink="http://www.w3.org/1999/xlink">
<defs>
<symbol id="icon-cheveron-down" viewBox="0 0 20 20">
<title>cheveron-down</title>
<path d="M9.293 12.95l0.707 0.707 5.657-5.657-1.414-1.414-4.243 4.242-4.243-4.242-1.414 1.414z"></path>
</symbol>
<symbol id="icon-document-add" viewBox="0 0 20 20">
<title>document-add</title>
<path d="M9 10v-2h2v2h2v2h-2v2h-2v-2h-2v-2h2zM4 18h12v-12h-4v-4h-8v16zM2 19v-19h12l4 4v16h-16v-1z"></path>
</symbol>
<symbol id="icon-inbox-download" viewBox="0 0 20 20">
<title>inbox-download</title>
<path d="M0 2c0-1.1 0.9-2 2-2h16c1.105 0 2 0.895 2 2v0 16c0 1.105-0.895 2-2 2v0h-16c-1.105 0-2-0.895-2-2v0-16zM14 14h4v-12h-16v12h4c0 1.1 0.9 2 2 2h4c1.105 0 2-0.895 2-2v0zM9 8v-3h2v3h3l-4 4-4-4h3z"></path>
</symbol>
</defs>
</svg>
